<svg width="50" height="50" xmlns="http://www.w3.org/2000/svg">
  <g id="announcement-icon" fill="none" fill-rule="evenodd">
    <g id="_ionicons_svg_md-megaphone-copy" transform="translate(3 8)" fill="#FFF" fill-rule="nonzero">
      <path d="M34.453 7L32 9.139c1.561 1.367 2.538 3.273 2.538 5.356 0 2.083-.977 3.99-2.538 5.357L34.453 22C36.641 20.084 38 17.425 38 14.505S36.64 8.915 34.453 7z" id="Path"/>
      <path d="M38.028 1.835L35.85 4.028a13.996 13.996 0 0 1 4.06 9.881 13.99 13.99 0 0 1-4.06 9.881l2.18 2.193C41.09 22.883 43 18.613 43 13.909s-1.9-8.973-4.972-12.074zm-10.385 8.22V0H24.57l-9.214 7.727H3.071L0 9.273V20.09l3.071 1.545L10.75 34h4.607l-2.88-12.364h2.88l9.214 6.182h3.072V17.763c1.766-.164 3.071-1.826 3.071-3.854s-1.305-3.69-3.071-3.854z" id="Shape"/>
    </g>
  </g>
</svg>
