<?xml version="1.0" encoding="UTF-8"?>
<svg width="288px" height="367px" viewBox="0 0 288 367" version="1.1" xmlns="http://www.w3.org/2000/svg" xmlns:xlink="http://www.w3.org/1999/xlink">
    <!-- Generator: Sketch 58 (84663) - https://sketch.com -->
    <title>file-icon</title>
    <desc>Created with Sketch.</desc>
    <g id="file-icon" stroke="none" stroke-width="1" fill="none" fill-rule="evenodd">
        <g id="_ionicons_svg_ios-document" transform="translate(50.000000, 59.000000)" fill="#C9C9C9" fill-rule="nonzero">
            <path d="M128.730435,61 L184.913043,61 C186.641739,61 188,59.6430738 188,57.9160768 C188,52.4266936 185.592174,47.2457027 181.393913,43.7917088 L134.286957,4.56420627 C130.706087,1.60364004 126.26087,0 121.568696,0 C119.037391,0 117,2.03538928 117,4.56420627 L117,49.281092 C117,55.7573306 122.247826,61 128.730435,61 Z" id="Path"></path>
            <path d="M100.802632,49.6 L100.802632,0 L19.7894737,0 C8.90526316,0 0,8.928 0,19.84 L0,228.16 C0,239.072 8.90526316,248 19.7894737,248 L168.210526,248 C179.094737,248 188,239.072 188,228.16 L188,77.5 L128.631579,77.5 C113.294737,77.5 100.802632,64.976 100.802632,49.6 Z" id="Path"></path>
        </g>
    </g>
</svg>