<svg width="50" height="50" xmlns="http://www.w3.org/2000/svg">
  <g id="groups-icon" fill="none" fill-rule="evenodd">
    <g id="_ionicons_svg_md-people" transform="translate(3 11)" fill="#FFF" fill-rule="nonzero">
      <path d="M29.318 11.667c3.225 0 5.864-2.626 5.864-5.834C35.182 2.625 32.543 0 29.318 0s-5.863 2.625-5.863 5.833 2.638 5.834 5.863 5.834zm-15.636 0c3.225 0 5.863-2.626 5.863-5.834C19.545 2.625 16.907 0 13.682 0c-3.225 0-5.864 2.625-5.864 5.833s2.639 5.834 5.864 5.834zm0 4.277C9.088 15.944 0 18.18 0 22.75V28h27.643v-5.25c0-4.57-9.368-6.806-13.961-6.806zm15.636 1.07c-.586 0-.99 0-1.675.097 2.248 1.653 3.071 2.722 3.071 5.639V28H43v-5.25c0-4.57-9.088-5.736-13.682-5.736z" id="Shape"/>
    </g>
  </g>
</svg>
