<svg width="50" height="50" xmlns="http://www.w3.org/2000/svg">
  <g id="logo" fill="none" fill-rule="evenodd">
    <g id="Asset-2-Copy" transform="translate(6 1)" fill="#DF8162" fill-rule="nonzero">
      <path d="M21.1 11.64a3.748 3.748 0 0 0-3.987.241l-4.932 3.492a3.17 3.17 0 0 0-1.325 2.73 3.14 3.14 0 0 0 1.527 2.6l3.883 2.323 2.766-1.952-5.013-3a.216.216 0 0 1 0-.13.142.142 0 0 1 0-.07l4.932-3.503c.1-.077.224-.12.352-.12a.625.625 0 0 1 .276.074l5.07 2.76 2.824-1.998L21.1 11.64zm0 0a3.748 3.748 0 0 0-3.987.241l-4.932 3.492a3.17 3.17 0 0 0-1.325 2.73 3.14 3.14 0 0 0 1.527 2.6l3.883 2.323 2.766-1.952-5.013-3a.216.216 0 0 1 0-.13.142.142 0 0 1 0-.07l4.932-3.503c.1-.077.224-.12.352-.12a.625.625 0 0 1 .276.074l5.07 2.76 2.824-1.998L21.1 11.64zm0 0a3.748 3.748 0 0 0-3.987.241l-4.932 3.492a3.17 3.17 0 0 0-1.325 2.73 3.14 3.14 0 0 0 1.527 2.6l3.883 2.323 2.766-1.952-5.013-3a.216.216 0 0 1 0-.13.142.142 0 0 1 0-.07l4.932-3.503c.1-.077.224-.12.352-.12a.625.625 0 0 1 .276.074l5.07 2.76 2.824-1.998L21.1 11.64zm15.604 20.38L33.627 29.9l-2.835 1.815 3.325 2.29-14.071 9.783a.753.753 0 0 1-.853 0L4.057 34.498a2.023 2.023 0 0 1-.91-1.717V14.56a2.073 2.073 0 0 1 .864-1.717l14.595-9.629a.735.735 0 0 1 .42-.137c.156.003.308.05.438.137l14.774 8.833c-.421.39-1.066.876-1.435 1.145l-.375.28-18.236 12.92-.075.057-.052.035a4.275 4.275 0 0 0-1.077 5.53c1.786 3.068 4.995 3.52 7.37 3.354a8.565 8.565 0 0 0 3.249-.876l2.403-1.557.357-.229 2.523-1.597.363-.229 5.4-3.486.576-.355 1.042-.647A3.864 3.864 0 0 0 38 23.347c0-1.918-1.625-3.332-2.99-4.179-.415-.263-.882-.52-1.389-.778l-2.881 2.02.536.292.138.069c.651.295 1.284.627 1.896.996 1.112.693 1.527 1.334 1.527 1.574 0 .132-.208.492-.974.962l-4.575 2.914-4.43-2.662-2.767 1.957 4.27 2.554-4.12 2.627a5.171 5.171 0 0 1-2.103.572c-2.178.15-3.624-.446-4.42-1.808a1.26 1.26 0 0 1 .266-1.557l4.638-3.28 2.426-1.718.346-.246 5.825-4.11 2.305-1.614.536-.378 2.172-1.534.052-.04.46-.35c1.453-1.081 3.089-2.29 3.02-3.92a2.415 2.415 0 0 0-1.297-1.918L21.123.632a3.928 3.928 0 0 0-4.275 0L2.26 10.279A5.103 5.103 0 0 0 0 14.56v18.192a5.145 5.145 0 0 0 2.386 4.356l15.13 9.32a4.002 4.002 0 0 0 4.345-.144l14.854-10.303a2.417 2.417 0 0 0 1.031-1.978c0-.787-.384-1.524-1.03-1.978l-.012-.006zM14.008 17.873l4.943-3.503c.1-.077.224-.12.352-.12a.625.625 0 0 1 .276.074l5.07 2.76 2.824-1.998-6.373-3.435a3.748 3.748 0 0 0-3.987.24l-4.932 3.48a3.17 3.17 0 0 0-1.325 2.731 3.14 3.14 0 0 0 1.527 2.6l3.883 2.323 2.766-1.952-5.013-3a.216.216 0 0 1 0-.13.142.142 0 0 1-.011-.07zm7.092-6.233a3.748 3.748 0 0 0-3.987.24l-4.932 3.492a3.17 3.17 0 0 0-1.325 2.73 3.14 3.14 0 0 0 1.527 2.6l3.883 2.323 2.766-1.952-5.013-3a.216.216 0 0 1 0-.13.142.142 0 0 1 0-.07l4.932-3.503c.1-.077.224-.12.352-.12a.625.625 0 0 1 .276.074l5.07 2.76 2.824-1.998L21.1 11.64zm0 0a3.748 3.748 0 0 0-3.987.24l-4.932 3.492a3.17 3.17 0 0 0-1.325 2.73 3.14 3.14 0 0 0 1.527 2.6l3.883 2.323 2.766-1.952-5.013-3a.216.216 0 0 1 0-.13.142.142 0 0 1 0-.07l4.932-3.503c.1-.077.224-.12.352-.12a.625.625 0 0 1 .276.074l5.07 2.76 2.824-1.998L21.1 11.64z" id="Shape"/>
    </g>
  </g>
</svg>
